
<svg width="100" height="100" viewBox="0 0 100 100" fill="none" xmlns="http://www.w3.org/2000/svg">
  <rect width="100" height="100" rx="10" fill="white"/>
  <path d="M73.9039 32.4558V29.1675H67.1427V35.9288H70.431C70.431 33.8848 71.8599 32.4558 73.9039 32.4558Z" fill="#FF7A59"/>
  <path d="M53.237 42.3901V58.9507C53.237 60.6167 52.1894 61.6643 50.5233 61.6643C48.8573 61.6643 47.8097 60.6167 47.8097 58.9507V42.6272H41.048V58.4764C41.048 64.5042 44.7324 68.1886 50.5233 68.1886C56.3142 68.1886 59.9986 64.5042 59.9986 58.4764V42.3901H53.237Z" fill="#FF7A59"/>
  <path d="M39.8633 48.8923V58.4764C39.8633 64.9786 35.7049 68.1886 29.6771 68.1886C23.4123 68.1886 19.7279 64.7414 19.7279 58.7136V29.1675H26.4891V42.6272C28.3922 40.7242 30.8687 39.6766 33.5823 39.6766C37.6194 39.6766 39.8633 42.8644 39.8633 48.8923ZM33.1081 46.1788C31.442 46.1788 30.3944 47.2264 29.8202 48.418V58.7136C29.8202 60.8519 31.0049 61.6643 33.1081 61.6643C35.4475 61.6643 36.7322 60.3796 36.7322 57.9031V49.9399C36.7322 47.4634 35.4475 46.1788 33.1081 46.1788Z" fill="#FF7A59"/>
  <path d="M80.4258 40.2509V47.4634C78.5228 45.7973 76.0463 45.2231 73.3327 45.2231C67.3047 45.2231 63.4832 49.4656 63.4832 55.4935C63.4832 61.5215 67.3047 65.764 73.3327 65.764C76.2835 65.764 78.997 64.9786 80.9001 62.8402V65.2897H87.6613V40.2509H80.4258ZM74.0709 59.4249C71.7315 59.4249 70.2096 57.9031 70.2096 55.4935C70.2096 53.084 71.7315 51.5621 74.0709 51.5621C76.4103 51.5621 78.1694 53.084 78.1694 55.4935C78.1694 57.9031 76.4103 59.4249 74.0709 59.4249Z" fill="#FF7A59"/>
</svg>
