
<svg width="100" height="100" viewBox="0 0 100 100" fill="none" xmlns="http://www.w3.org/2000/svg">
  <path d="M74.24 37.32C71.76 37.32 69.41 38.01 67.4 39.2C65.75 34.33 60.93 30.91 55.27 30.91C52.24 30.91 49.43 31.95 47.24 33.69C44.95 28.51 39.77 25 33.76 25C25.45 25 18.8 31.65 18.8 39.96C18.8 42.05 19.29 44.05 20.17 45.81C14.65 46.57 10.43 51.37 10.43 57.15C10.43 63.33 15.45 68.35 21.63 68.35H74.24C82.55 68.35 89.2 61.7 89.2 53.39C89.2 45.08 82.55 37.32 74.24 37.32Z" fill="#00A1E0"/>
  <path d="M34.51 47.81C34.51 47.49 34.4 47.2 34.16 47C33.95 46.79 33.67 46.68 33.36 46.68C33.11 46.68 32.87 46.76 32.67 46.92L29.48 49.58V47.04C29.48 46.71 29.21 46.44 28.88 46.44H28.35C28.03 46.44 27.76 46.71 27.76 47.04V54.39C27.76 54.72 28.03 54.99 28.35 54.99H28.88C29.21 54.99 29.48 54.72 29.48 54.39V51.29L30.25 50.64L32.86 54.64C32.99 54.84 33.24 54.97 33.48 54.97H34.16C34.4 54.97 34.61 54.85 34.75 54.65C34.89 54.46 34.93 54.2 34.83 53.97L31.81 49.35L34.19 47.37C34.39 47.21 34.51 47.01 34.51 47.81Z" fill="white"/>
  <path d="M38.99 48.16H36.88V47.04C36.88 46.71 36.61 46.44 36.28 46.44H35.75C35.43 46.44 35.16 46.71 35.16 47.04V54.39C35.16 54.72 35.43 54.99 35.75 54.99H36.28C36.61 54.99 36.88 54.72 36.88 54.39V49.89H38.99C39.32 49.89 39.59 49.62 39.59 49.29V48.76C39.59 48.43 39.32 48.16 38.99 48.16Z" fill="white"/>
  <path d="M45.29 52.63C45.29 51.33 44.64 50.13 43.59 49.42C42.54 48.71 41.24 48.71 40.19 49.42C39.14 50.13 38.49 51.33 38.49 52.63C38.49 53.93 39.14 55.12 40.19 55.84C41.24 56.55 42.54 56.55 43.59 55.84C44.64 55.12 45.29 53.92 45.29 52.63ZM40.19 54.38C39.65 53.95 39.35 53.31 39.35 52.63C39.35 51.95 39.65 51.31 40.19 50.88C40.85 50.36 41.77 50.36 42.43 50.88C42.96 51.31 43.27 51.95 43.27 52.63C43.27 53.31 42.96 53.95 42.43 54.38C41.77 54.9 40.85 54.9 40.19 54.38Z" fill="white"/>
  <path d="M51.96 49.29C51.96 48.97 51.71 48.69 51.39 48.65C51.25 48.63 51.12 48.61 50.97 48.61C50.31 48.61 49.7 48.91 49.27 49.42C48.85 48.91 48.24 48.61 47.57 48.61C47.43 48.61 47.3 48.63 47.16 48.65C46.84 48.69 46.59 48.97 46.59 49.29V54.39C46.59 54.72 46.86 54.99 47.19 54.99H47.72C48.04 54.99 48.31 54.72 48.31 54.39V50.93C48.31 50.35 48.67 49.89 49.11 49.89C49.55 49.89 49.91 50.35 49.91 50.93V54.39C49.91 54.72 50.18 54.99 50.51 54.99H51.04C51.37 54.99 51.64 54.72 51.64 54.39V50.93C51.64 50.35 52 49.89 52.44 49.89C52.88 49.89 53.24 50.35 53.24 50.93V54.39C53.24 54.72 53.51 54.99 53.84 54.99H54.37C54.7 54.99 54.97 54.72 54.97 54.39V49.29C54.97 48.97 54.71 48.69 54.4 48.65C54.25 48.63 54.12 48.61 53.97 48.61C53.3 48.61 52.69 48.91 52.27 49.42C51.84 48.91 51.23 48.61 50.57 48.61C50.37 48.61 50.17 48.64 49.97 48.69C49.77 48.64 49.57 48.61 49.37 48.61C49.24 48.61 49.1 48.63 48.96 48.65C48.64 48.69 48.39 48.97 48.39 49.29V49.45C48.03 48.93 47.45 48.61 46.77 48.61C46.56 48.61 46.37 48.65 46.17 48.71C46.12 48.04 45.57 47.49 44.89 47.49H44.36C44.03 47.49 43.76 47.76 43.76 48.09V54.39C43.76 54.72 44.03 54.99 44.36 54.99H44.89C45.21 54.99 45.48 54.72 45.48 54.39V50.36L45.49 50.31C45.49 49.73 45.85 49.27 46.28 49.27C46.72 49.27 47.08 49.73 47.08 50.31V49.96C47.08 49.69 47.23 49.44 47.47 49.33C47.57 49.28 47.67 49.27 47.79 49.27C47.93 49.27 48.07 49.33 48.19 49.45C48.27 49.52 48.33 49.63 48.35 49.75C48.36 49.79 48.36 49.82 48.36 49.85V54.39C48.36 54.72 48.63 54.99 48.96 54.99H49.49C49.81 54.99 50.08 54.72 50.08 54.39V49.85C50.08 49.84 50.08 49.83 50.08 49.81C50.11 49.69 50.17 49.57 50.25 49.49C50.37 49.37 50.51 49.31 50.65 49.31C50.77 49.31 50.87 49.32 50.97 49.37C51.21 49.49 51.36 49.73 51.36 50V54.39C51.36 54.72 51.63 54.99 51.96 54.99H52.49C52.81 54.99 53.08 54.72 53.08 54.39V49.85C53.08 49.84 53.08 49.83 53.08 49.81C53.11 49.69 53.17 49.57 53.25 49.49C53.37 49.37 53.52 49.31 53.65 49.31C53.77 49.31 53.87 49.32 53.97 49.37C54.21 49.49 54.36 49.73 54.36 50V54.39C54.36 54.72 54.63 54.99 54.96 54.99H55.49C55.81 54.99 56.08 54.72 56.08 54.39V49.29C56.08 48.97 55.83 48.69 55.51 48.65C55.37 48.63 55.23 48.61 55.09 48.61C54.43 48.61 53.81 48.91 53.39 49.44C52.96 48.92 52.35 48.61 51.67 48.61C51.44 48.61 51.2 48.67 50.97 48.75C50.75 48.66 50.51 48.61 50.27 48.61C49.97 48.61 49.67 48.69 49.41 48.85V48.09C49.41 47.76 49.15 47.49 48.83 47.49H48.29C47.97 47.49 47.7 47.76 47.7 48.09V48.76C47.61 48.67 47.49 48.61 47.37 48.61H46.84C46.51 48.61 46.24 48.88 46.24 49.21V54.39C46.24 54.72 46.51 54.99 46.84 54.99H47.37C47.69 54.99 47.96 54.72 47.96 54.39V50.34L47.97 50.29C47.97 49.69 48.33 49.23 48.77 49.23C49.21 49.23 49.57 49.69 49.57 50.29V54.39C49.57 54.72 49.84 54.99 50.17 54.99H50.7C51.03 54.99 51.3 54.72 51.3 54.39V50.34L51.31 50.29C51.31 49.69 51.67 49.23 52.11 49.23C52.55 49.23 52.91 49.69 52.91 50.29V54.39C52.91 54.72 53.18 54.99 53.51 54.99H54.04C54.37 54.99 54.64 54.72 54.64 54.39V50.29C54.64 49.69 55 49.23 55.44 49.23C55.88 49.23 56.24 49.69 56.24 50.29V54.39C56.24 54.72 56.51 54.99 56.84 54.99H57.37C57.7 54.99 57.97 54.72 57.97 54.39V50.29C57.97 49.2 57.24 48.29 56.25 48.08C56.09 48.05 55.93 48.03 55.77 48.03C55.11 48.03 54.49 48.33 54.07 48.84C53.65 48.33 53.03 48.03 52.37 48.03C52.16 48.03 51.93 48.08 51.71 48.17C51.49 48.08 51.27 48.03 51.05 48.03C50.95 48.03 50.83 48.05 50.73 48.07V48.07C50.43 48.15 50.19 48.36 50.11 48.65C50.05 48.52 49.97 48.4 49.87 48.31V48.09C49.87 47.76 49.6 47.49 49.27 47.49H48.75C48.43 47.49 48.15 47.76 48.15 48.09V49.21C48.15 49.24 48.15 49.27 48.16 49.29V54.39C48.16 54.72 48.43 54.99 48.75 54.99H49.28C49.61 54.99 49.88 54.72 49.88 54.39V52.13C49.88 51.53 50.35 51.05 50.95 51.05H51.43C51.76 51.05 52.03 50.79 52.03 50.47V49.96C52.03 49.64 51.76 49.37 51.43 49.37H50.95C50.67 49.37 50.41 49.45 50.19 49.57V49.29H51.96Z" fill="white"/>
  <path d="M61.44 48.61C61.17 48.61 60.92 48.73 60.75 48.95C60.59 48.72 60.33 48.61 60.05 48.61H59.52C59.2 48.61 58.93 48.88 58.93 49.21V54.39C58.93 54.72 59.2 54.99 59.52 54.99H60.05C60.38 54.99 60.65 54.72 60.65 54.39V50.77L60.67 50.72C60.67 50.15 61.12 49.69 61.69 49.69C62.01 49.69 62.28 49.43 62.28 49.11V49.2C62.28 48.87 62.01 48.61 61.68 48.61H61.44Z" fill="white"/>
  <path d="M66.97 54.39V49.8H68.45C68.77 49.8 69.04 49.53 69.04 49.21V48.77C69.04 48.45 68.77 48.19 68.45 48.19H66.97V47.04C66.97 46.71 66.7 46.44 66.37 46.44H65.84C65.52 46.44 65.25 46.71 65.25 47.04V48.19H64.45C64.13 48.19 63.87 48.45 63.87 48.77V49.21C63.87 49.53 64.13 49.8 64.45 49.8H65.25V54.39C65.25 54.72 65.52 54.99 65.84 54.99H66.37C66.7 54.99 66.97 54.72 66.97 54.39Z" fill="white"/>
  <path d="M62.69 47.25C62.56 47.11 62.56 46.89 62.69 46.76C62.75 46.69 62.84 46.65 62.93 46.65C63.02 46.65 63.11 46.69 63.17 46.76C63.31 46.89 63.31 47.11 63.17 47.25C63.11 47.31 63.02 47.35 62.93 47.35C62.84 47.35 62.75 47.31 62.69 47.25Z" fill="white"/>
  <path d="M63.29 54.39V48.09C63.29 47.76 63.02 47.49 62.69 47.49H62.16C61.84 47.49 61.57 47.76 61.57 48.09V54.39C61.57 54.72 61.84 54.99 62.16 54.99H62.69C63.02 54.99 63.29 54.72 63.29 54.39Z" fill="white"/>
  <path d="M70.55 47.04V54.39C70.55 54.72 70.81 54.99 71.14 54.99H71.67C72 54.99 72.27 54.72 72.27 54.39V47.04C72.27 46.71 72 46.44 71.67 46.44H71.14C70.81 46.44 70.55 46.71 70.55 47.04Z" fill="white"/>
</svg>
