
<svg width="100" height="100" viewBox="0 0 100 100" fill="none" xmlns="http://www.w3.org/2000/svg">
  <path d="M81.25 25H18.75C15.3 25 12.5 27.8 12.5 31.25V68.75C12.5 72.2 15.3 75 18.75 75H81.25C84.7 75 87.5 72.2 87.5 68.75V31.25C87.5 27.8 84.7 25 81.25 25Z" fill="white"/>
  <path d="M18.75 75H81.25C84.7 75 87.5 72.2 87.5 68.75V31.25C87.5 27.8 84.7 25 81.25 25H18.75C15.3 25 12.5 27.8 12.5 31.25V68.75C12.5 72.2 15.3 75 18.75 75Z" fill="white" stroke="#E8EAED"/>
  <path d="M17.02 35.41L48.37 58.23C49.08 58.74 49.99 58.74 50.7 58.23L82.05 35.41C82.42 35.13 82.5 34.62 82.22 34.25L79.35 30.41C79.07 30.04 78.56 29.96 78.18 30.24L51.22 50.63C50.51 51.15 49.56 51.15 48.85 50.63L21.8 30.16C21.42 29.88 20.91 29.96 20.63 30.33L17.76 34.16C17.48 34.54 17.56 35.05 17.93 35.33L17.02 35.41Z" fill="#4285F4"/>
  <path d="M20.5 32.5L50 55L79.5 32.5" stroke="#EA4335" stroke-width="6" stroke-linecap="round" stroke-linejoin="round"/>
  <path d="M17.5 36V67.5C17.5 69.71 19.29 71.5 21.5 71.5H32.5V47.5L17.5 36Z" fill="#34A853"/>
  <path d="M82.5 36V67.5C82.5 69.71 80.71 71.5 78.5 71.5H67.5V47.5L82.5 36Z" fill="#FBBC04"/>
  <path d="M32.5 71.5H67.5V47.5L50 61L32.5 47.5V71.5Z" fill="#C5221F"/>
</svg>
