
<svg width="100" height="100" viewBox="0 0 100 100" fill="none" xmlns="http://www.w3.org/2000/svg">
  <path d="M81.25 25H18.75C15.3 25 12.5 27.8 12.5 31.25V68.75C12.5 72.2 15.3 75 18.75 75H81.25C84.7 75 87.5 72.2 87.5 68.75V31.25C87.5 27.8 84.7 25 81.25 25Z" fill="white"/>
  <path d="M51.07 64.25C50.82 64.42 50.45 64.58 50.07 64.58C49.7 64.58 49.32 64.42 49.07 64.25C47.32 63 42.2 57.5 42.2 53.75C42.2 50.75 45.82 48.17 50.07 48.17C54.32 48.17 57.95 50.75 57.95 53.75C57.95 57.5 52.82 63 51.07 64.25Z" fill="#FFE01B"/>
  <path d="M67.2 62.08C67.7 61.83 67.95 61.42 67.82 61C67.7 60.58 67.32 60.42 66.82 60.58C66.32 60.75 65.82 61.17 65.95 61.58C66.07 62 66.57 62.25 67.2 62.08Z" fill="#FFE01B"/>
  <path d="M63.7 61.25C64.07 61.08 64.2 60.75 64.2 60.42C64.2 60.08 63.95 59.83 63.57 59.83C63.2 59.83 62.82 60.08 62.82 60.42C62.82 60.75 63.2 61.42 63.7 61.25Z" fill="#FFE01B"/>
  <path d="M58.57 42.58C59.82 42.58 60.95 42.75 61.95 43C62.07 41.08 60.95 39.25 59.2 38.08C58.45 37.58 57.57 37.17 56.57 37C56.45 37 56.32 37 56.2 37C54.95 37 53.82 37.5 52.95 38.33C52.82 38.33 52.7 38.33 52.57 38.33C51.82 38.33 51.07 38.58 50.32 38.92C49.57 38.58 48.82 38.33 48.07 38.33C47.95 38.33 47.82 38.33 47.7 38.33C46.82 37.5 45.7 37 44.45 37C44.32 37 44.2 37 44.07 37C43.07 37.17 42.2 37.58 41.45 38.08C39.7 39.17 38.57 41.08 38.7 43C39.7 42.75 40.82 42.58 42.07 42.58C43.82 42.58 45.45 42.92 46.95 43.42C47.32 43.25 47.7 43.08 48.07 43C48.32 42.92 48.57 42.83 48.82 42.83C49.07 42.75 49.32 42.75 49.57 42.75H50.07H50.57C50.82 42.75 51.07 42.75 51.32 42.83C51.57 42.83 51.82 42.92 52.07 43C52.57 43.08 52.82 43.25 53.2 43.42C54.7 42.83 56.57 42.58 58.57 42.58Z" fill="#EFAA0F"/>
  <path d="M31.07 58C31.07 59.5 32.32 60.58 34.95 62C37.57 63.33 39.57 64 40.32 63.67C41.07 63.33 41.95 62.33 42.95 60.75C43.45 59.83 43.95 58.67 44.32 57.17C43.95 56.83 43.57 56.42 43.32 56C43.07 55.58 42.82 55.17 42.7 54.75C42.45 53.83 42.95 52.42 43.57 51.33C43.82 50.92 44.2 50.5 44.57 50.08C44.32 49.67 44.07 49.25 43.82 48.83C41.82 45.83 39.95 44.92 38.2 44.92C37.32 44.92 36.57 45.17 35.82 45.58C32.82 47.08 31.07 50.17 31.07 54.5V58Z" fill="#41B6E6"/>
  <path d="M62.7 64.33C63.7 63.33 64.07 62.17 63.7 61.58C63.45 61 62.45 60.83 61.2 61C59.95 61.17 59.57 60.75 59.32 60.33C59.2 60.17 59.07 59.92 59.07 59.67C58.82 61.08 57.95 62.5 56.82 63.67C56.57 63.92 56.32 64.17 55.95 64.42C55.57 64.67 55.2 64.92 54.82 65.17C54.32 65.58 53.95 65.92 53.57 66.17C52.7 66.92 51.82 67.33 50.82 67.33C49.82 67.33 48.95 66.92 48.07 66.17C47.7 65.92 47.32 65.58 46.82 65.17C46.45 64.92 46.07 64.67 45.7 64.42C45.32 64.17 45.07 63.92 44.82 63.67C43.57 62.5 42.82 61.08 42.57 59.67C42.57 59.92 42.45 60.17 42.32 60.33C42.07 60.75 41.7 61.17 40.45 61C39.2 60.83 38.2 61 37.95 61.58C37.57 62.17 37.95 63.33 38.95 64.33C39.95 65.33 41.2 66.17 42.57 66.58C42.57 66.58 43.95 66.33 44.2 65.58C44.2 65.58 44.32 65.83 44.82 66.33C44.95 66.5 45.2 66.67 45.45 66.83C45.7 67 45.95 67.17 46.2 67.33C46.7 67.67 47.32 67.92 47.95 68.17C48.57 68.42 49.32 68.58 50.07 68.58C50.82 68.58 51.57 68.42 52.2 68.17C52.82 67.92 53.45 67.67 53.95 67.33C54.2 67.17 54.45 67 54.7 66.83C54.95 66.67 55.2 66.5 55.32 66.33C55.82 65.83 55.95 65.58 55.95 65.58C56.2 66.33 57.57 66.58 57.57 66.58C58.95 66.17 60.2 65.33 61.2 64.33H62.7Z" fill="#41B6E6"/>
  <path d="M48.07 52.83C47.7 52.67 47.32 52.58 46.95 52.58C45.7 52.58 44.7 53.17 44.07 54.08C44.32 54.92 44.95 55.75 45.95 56.58C47.32 57.67 48.95 58.17 50.07 57.92C51.2 58.17 52.82 57.67 54.2 56.58C55.2 55.75 55.82 54.92 56.07 54.08C55.45 53.17 54.45 52.58 53.2 52.58C52.82 52.58 52.45 52.67 52.07 52.83C51.7 53 51.32 53.25 50.95 53.58C50.7 53.83 50.32 54 50.07 54C49.82 54 49.45 53.83 49.2 53.58C48.82 53.25 48.45 53 48.07 52.83Z" fill="#231F20"/>
  <path d="M69.82 58V54.5C69.82 50.17 68.07 47.08 65.07 45.58C64.32 45.17 63.57 44.92 62.7 44.92C60.95 44.92 59.07 45.83 57.07 48.83C56.82 49.25 56.57 49.67 56.32 50.08C56.7 50.5 57.07 50.92 57.32 51.33C57.95 52.42 58.45 53.83 58.2 54.75C58.07 55.17 57.82 55.58 57.57 56C57.32 56.42 56.95 56.83 56.57 57.17C56.95 58.67 57.45 59.83 57.95 60.75C58.95 62.33 59.82 63.33 60.57 63.67C61.32 64 63.32 63.33 65.95 62C68.57 60.75 69.82 59.67 69.82 58Z" fill="#EFAA0F"/>
</svg>
