
<svg width="100" height="100" viewBox="0 0 100 100" fill="none" xmlns="http://www.w3.org/2000/svg">
  <rect width="100" height="100" rx="10" fill="white"/>
  <path d="M51.7969 25H26.75C24.6789 25 23 26.6789 23 28.75V71.25C23 73.321 24.6789 75 26.75 75H51.7969C53.868 75 55.5469 73.321 55.5469 71.25V28.75C55.5469 26.6789 53.868 25 51.7969 25Z" fill="#0078D4"/>
  <path d="M55.5469 42.1406V59.0938L77.2188 69.0312C78.7604 69.8021 80 68.125 80 66.4521V34.6354C80 32.9354 78.7604 31.2583 77.2188 32.0292L55.5469 42.1406Z" fill="#0078D4"/>
  <rect x="28" y="40" width="23" height="20" fill="white"/>
  <path d="M41 52C42.0805 52 43.1121 51.648 43.9413 51L42.9438 50.1292C42.4628 50.4288 41.7389 50.6257 41 50.6257C39.0376 50.6257 37.7962 49.1586 37.7962 47.0125C37.7962 44.8664 39.0376 43.3743 41 43.3743C41.7389 43.3743 42.4628 43.5712 42.9438 43.8708L43.9413 43C43.1121 42.352 42.0805 42 41 42C38.2459 42 36.375 44.1295 36.375 47.0125C36.375 49.8955 38.2459 52 41 52Z" fill="#0078D4"/>
  <path d="M33.625 52C35 52 36.125 50.875 36.125 49.5V44.5C36.125 43.125 35 42 33.625 42C32.25 42 31.125 43.125 31.125 44.5V49.5C31.125 50.875 32.25 52 33.625 52Z" fill="#0078D4"/>
</svg>
