
<svg width="100" height="100" viewBox="0 0 100 100" fill="none" xmlns="http://www.w3.org/2000/svg">
  <path d="M81.25 25H18.75C15.3 25 12.5 27.8 12.5 31.25V68.75C12.5 72.2 15.3 75 18.75 75H81.25C84.7 75 87.5 72.2 87.5 68.75V31.25C87.5 27.8 84.7 25 81.25 25Z" fill="white"/>
  <path d="M87.5 50C87.5 37.64 82.36 37.5 75 37.5H25C17.64 37.5 12.5 37.64 12.5 50C12.5 62.36 17.64 62.5 25 62.5H75C82.36 62.5 87.5 62.36 87.5 50Z" fill="#1877F2"/>
  <path d="M53.12 69.27V50H59.38L60.62 42.5H53.12V37.65C53.12 35.55 53.75 34.06 56.81 34.06H60.94V27.31C60.24 27.22 57.81 27 55.01 27C49.15 27 45.13 30.66 45.13 36.85V42.5H38.94V50H45.13V69.27C46.06 69.42 47.01 69.5 48 69.5C49.7 69.5 51.44 69.42 53.12 69.27Z" fill="white"/>
</svg>
