
<svg width="100" height="100" viewBox="0 0 100 100" fill="none" xmlns="http://www.w3.org/2000/svg">
  <rect width="100" height="100" rx="10" fill="white"/>
  <rect x="15" y="15" width="70" height="70" rx="20" fill="url(#paint0_radial_instagram)"/>
  <rect x="15" y="15" width="70" height="70" rx="20" fill="url(#paint1_radial_instagram)"/>
  <rect x="15" y="15" width="70" height="70" rx="20" fill="url(#paint2_radial_instagram)"/>
  <path fill-rule="evenodd" clip-rule="evenodd" d="M50 34.6667C45.6955 34.6667 45.1506 34.6859 43.4646 34.7608C41.7819 34.8363 40.6129 35.0957 39.5796 35.4811C38.5115 35.8793 37.6012 36.4109 36.6935 37.3186C35.7858 38.2264 35.2543 39.1367 34.8561 40.2048C34.4707 41.238 34.2113 42.4069 34.1358 44.0896C34.0609 45.7756 34.0417 46.3205 34.0417 50.625C34.0417 54.9295 34.0609 55.4744 34.1358 57.1604C34.2113 58.8431 34.4707 60.012 34.8561 61.0452C35.2543 62.1133 35.7858 63.0236 36.6935 63.9314C37.6012 64.8391 38.5115 65.3707 39.5796 65.7689C40.6129 66.1543 41.7819 66.4137 43.4646 66.4892C45.1506 66.5641 45.6955 66.5834 50 66.5834C54.3045 66.5834 54.8494 66.5641 56.5354 66.4892C58.2181 66.4137 59.3871 66.1543 60.4204 65.7689C61.4885 65.3707 62.3988 64.8391 63.3065 63.9314C64.2142 63.0236 64.7457 62.1133 65.1439 61.0452C65.5293 60.012 65.7887 58.8431 65.8642 57.1604C65.9391 55.4744 65.9583 54.9295 65.9583 50.625C65.9583 46.3205 65.9391 45.7756 65.8642 44.0896C65.7887 42.4069 65.5293 41.238 65.1439 40.2048C64.7457 39.1367 64.2142 38.2264 63.3065 37.3186C62.3988 36.4109 61.4885 35.8793 60.4204 35.4811C59.3871 35.0957 58.2181 34.8363 56.5354 34.7608C54.8494 34.6859 54.3045 34.6667 50 34.6667ZM50 38.2375C54.2178 38.2375 54.7256 38.2542 56.3906 38.3279C57.9302 38.3959 58.778 38.645 59.3551 38.85C60.1198 39.1226 60.6658 39.4492 61.2409 40.0244C61.8161 40.5996 62.1427 41.1456 62.4153 41.9102C62.6203 42.4873 62.8695 43.3352 62.9374 44.8748C63.0111 46.5398 63.0278 47.0475 63.0278 51.2654C63.0278 55.4833 63.0111 55.991 62.9374 57.656C62.8695 59.1955 62.6203 60.0434 62.4153 60.6205C62.1427 61.3851 61.8161 61.9312 61.2409 62.5063C60.6658 63.0815 60.1198 63.4081 59.3551 63.6807C58.778 63.8857 57.9302 64.1349 56.3906 64.2029C54.7259 64.2765 54.2184 64.2933 50 64.2933C45.7816 64.2933 45.2741 64.2765 43.6094 64.2029C42.0698 64.1349 41.222 63.8857 40.6449 63.6807C39.8802 63.4081 39.3342 63.0815 38.7591 62.5063C38.1839 61.9312 37.8573 61.3851 37.5847 60.6205C37.3797 60.0434 37.1305 59.1955 37.0626 57.656C36.9889 55.991 36.9722 55.4833 36.9722 51.2654C36.9722 47.0475 36.9889 46.5398 37.0626 44.8748C37.1305 43.3352 37.3797 42.4873 37.5847 41.9102C37.8573 41.1456 38.1839 40.5996 38.7591 40.0244C39.3342 39.4492 39.8802 39.1226 40.6449 38.85C41.222 38.645 42.0698 38.3959 43.6094 38.3279C45.2744 38.2542 45.7822 38.2375 50 38.2375Z" fill="white"/>
  <path fill-rule="evenodd" clip-rule="evenodd" d="M50 55.7641C47.1853 55.7641 44.9031 53.4818 44.9031 50.6672C44.9031 47.8525 47.1853 45.5702 50 45.5702C52.8147 45.5702 55.0969 47.8525 55.0969 50.6672C55.0969 53.4818 52.8147 55.7641 50 55.7641ZM50 42.9397C45.7317 42.9397 42.2727 46.3988 42.2727 50.6672C42.2727 54.9355 45.7317 58.3945 50 58.3945C54.2683 58.3945 57.7273 54.9355 57.7273 50.6672C57.7273 46.3988 54.2683 42.9397 50 42.9397ZM59.4409 42.6688C59.4409 43.5376 58.7397 44.2388 57.8709 44.2388C57.0022 44.2388 56.301 43.5376 56.301 42.6688C56.301 41.8 57.0022 41.0988 57.8709 41.0988C58.7397 41.0988 59.4409 41.8 59.4409 42.6688Z" fill="white"/>
  <defs>
    <radialGradient id="paint0_radial_instagram" cx="0" cy="0" r="1" gradientUnits="userSpaceOnUse" gradientTransform="translate(39.5 71.5) rotate(-90) scale(51.9364 48.2326)">
      <stop stop-color="#FFDD55"/>
      <stop offset="0.1" stop-color="#FFDD55"/>
      <stop offset="0.5" stop-color="#FF543E"/>
      <stop offset="1" stop-color="#C837AB"/>
    </radialGradient>
    <radialGradient id="paint1_radial_instagram" cx="0" cy="0" r="1" gradientUnits="userSpaceOnUse" gradientTransform="translate(65 72) rotate(-90) scale(51.9364 48.2326)">
      <stop stop-color="#3771C8"/>
      <stop offset="0.128" stop-color="#3771C8"/>
      <stop offset="1" stop-color="#6600FF" stop-opacity="0"/>
    </radialGradient>
    <radialGradient id="paint2_radial_instagram" cx="0" cy="0" r="1" gradientUnits="userSpaceOnUse" gradientTransform="translate(32 30) rotate(65.799) scale(29.0573 19.2318)">
      <stop stop-color="#FFDD55"/>
      <stop offset="1" stop-color="#FFDD55" stop-opacity="0"/>
    </radialGradient>
  </defs>
</svg>
