
<svg width="100" height="100" viewBox="0 0 100 100" fill="none" xmlns="http://www.w3.org/2000/svg">
  <path d="M81.25 25H18.75C15.3 25 12.5 27.8 12.5 31.25V68.75C12.5 72.2 15.3 75 18.75 75H81.25C84.7 75 87.5 72.2 87.5 68.75V31.25C87.5 27.8 84.7 25 81.25 25Z" fill="white"/>
  <path d="M79.17 28.13H20.83C19.27 28.13 18 29.39 18 30.96V69.04C18 70.61 19.27 71.88 20.83 71.88H79.17C80.73 71.88 82 70.61 82 69.04V30.96C82 29.39 80.73 28.13 79.17 28.13Z" fill="#0077B5"/>
  <path d="M34.38 63.54H26.67V40.63H34.38V63.54ZM30.52 37.29C28.12 37.29 26.17 35.29 26.17 32.88C26.17 30.46 28.12 28.46 30.52 28.46C32.92 28.46 34.88 30.46 34.88 32.88C34.88 35.29 32.92 37.29 30.52 37.29ZM73.96 63.54H66.25V52.5C66.25 49.67 66.17 46.04 62.29 46.04C58.33 46.04 57.71 49.13 57.71 52.33V63.54H50V40.63H57.38V44H57.5C58.54 42.04 61.04 40 64.79 40C72.63 40 74 45.17 74 51.83V63.54H73.96Z" fill="white"/>
</svg>
