
<svg width="100" height="100" viewBox="0 0 100 100" fill="none" xmlns="http://www.w3.org/2000/svg">
  <path d="M81.25 25H18.75C15.3 25 12.5 27.8 12.5 31.25V68.75C12.5 72.2 15.3 75 18.75 75H81.25C84.7 75 87.5 72.2 87.5 68.75V31.25C87.5 27.8 84.7 25 81.25 25Z" fill="white"/>
  <path d="M73.44 37.5C71.56 38.28 69.53 38.83 67.39 39.08C69.59 37.8 71.28 35.73 72.08 33.3C69.94 34.53 67.69 35.41 65.25 35.89C62.98 33.78 59.88 32.5 56.67 32.5C50.5 32.5 45.61 37.39 45.61 43.3C45.61 44.14 45.7 44.97 45.86 45.75C36.72 45.28 28.66 40.94 23.25 34.47C22.33 36.08 21.81 37.91 21.81 39.88C21.81 43.58 23.7 46.83 26.56 48.72C24.63 48.7 22.7 48.14 21.09 47.28V47.36C21.09 52.55 24.88 56.86 29.88 57.83C28.98 58.08 28.05 58.22 27.08 58.22C26.41 58.22 25.75 58.16 25.11 58.03C26.45 62.27 30.52 65.34 35.3 65.41C31.59 68.28 26.88 69.97 21.8 69.97C20.92 69.97 20.08 69.91 19.22 69.8C24.05 72.88 29.73 74.64 35.81 74.64C56.61 74.64 68.02 58 68.02 43.52C68.02 43.08 68.02 42.67 67.98 42.25C70.23 40.8 72.08 38.94 73.44 36.75V37.5Z" fill="#1D9BF0"/>
</svg>
