
<svg width="100" height="100" viewBox="0 0 100 100" fill="none" xmlns="http://www.w3.org/2000/svg">
  <path d="M81.25 25H18.75C15.3 25 12.5 27.8 12.5 31.25V68.75C12.5 72.2 15.3 75 18.75 75H81.25C84.7 75 87.5 72.2 87.5 68.75V31.25C87.5 27.8 84.7 25 81.25 25Z" fill="white"/>
  <path d="M69.65 37.91C65.85 36.19 61.74 34.88 57.41 34.06C57.35 34.05 57.29 34.08 57.26 34.13C56.72 35.07 56.12 36.28 55.7 37.23C51.06 36.46 46.45 36.46 41.91 37.23C41.49 36.27 40.88 35.07 40.34 34.13C40.31 34.08 40.25 34.05 40.19 34.06C35.86 34.88 31.75 36.19 27.95 37.91C27.93 37.92 27.9 37.94 27.89 37.97C19.2 50.94 16.93 63.55 18.04 75.96C18.05 76.01 18.08 76.05 18.12 76.08C23.32 79.85 28.36 82.04 33.32 83.51C33.38 83.53 33.44 83.51 33.48 83.46C35.11 81.27 36.57 78.95 37.82 76.5C37.87 76.41 37.82 76.31 37.73 76.28C36.17 75.69 34.69 74.98 33.28 74.17C33.18 74.12 33.17 73.98 33.26 73.92C33.55 73.71 33.85 73.49 34.13 73.26C34.17 73.23 34.23 73.22 34.28 73.24C44.95 78.05 56.39 78.05 66.93 73.24C66.98 73.22 67.03 73.23 67.08 73.26C67.36 73.49 67.65 73.71 67.94 73.92C68.04 73.98 68.03 74.12 67.93 74.17C66.51 74.99 65.04 75.69 63.47 76.28C63.38 76.31 63.34 76.42 63.38 76.5C64.65 78.95 66.11 81.27 67.72 83.46C67.76 83.51 67.82 83.53 67.88 83.51C72.87 82.04 77.9 79.85 83.1 76.08C83.15 76.05 83.17 76.01 83.18 75.96C84.51 61.77 81.05 49.26 73.31 37.97C73.3 37.94 73.28 37.92 73.25 37.91H69.65ZM36.12 65.76C32.86 65.76 30.17 62.78 30.17 59.12C30.17 55.46 32.79 52.48 36.12 52.48C39.47 52.48 42.14 55.5 42.07 59.12C42.07 62.78 39.44 65.76 36.12 65.76ZM62.59 65.76C59.33 65.76 56.64 62.78 56.64 59.12C56.64 55.46 59.26 52.48 62.59 52.48C65.94 52.48 68.61 55.5 68.54 59.12C68.54 62.78 65.94 65.76 62.59 65.76Z" fill="#5865F2"/>
</svg>
