
<svg width="100" height="100" viewBox="0 0 100 100" fill="none" xmlns="http://www.w3.org/2000/svg">
  <path d="M81.25 25H18.75C15.3 25 12.5 27.8 12.5 31.25V68.75C12.5 72.2 15.3 75 18.75 75H81.25C84.7 75 87.5 72.2 87.5 68.75V31.25C87.5 27.8 84.7 25 81.25 25Z" fill="white"/>
  <path d="M41.25 57.5C41.25 60.25 39 62.5 36.25 62.5C33.5 62.5 31.25 60.25 31.25 57.5C31.25 54.75 33.5 52.5 36.25 52.5H41.25V57.5Z" fill="#36C5F0"/>
  <path d="M43.75 57.5C43.75 54.75 46 52.5 48.75 52.5C51.5 52.5 53.75 54.75 53.75 57.5V70C53.75 72.75 51.5 75 48.75 75C46 75 43.75 72.75 43.75 70V57.5Z" fill="#36C5F0"/>
  <path d="M48.75 41.25C46 41.25 43.75 39 43.75 36.25C43.75 33.5 46 31.25 48.75 31.25C51.5 31.25 53.75 33.5 53.75 36.25V41.25H48.75Z" fill="#2EB67D"/>
  <path d="M48.75 43.75C51.5 43.75 53.75 46 53.75 48.75C53.75 51.5 51.5 53.75 48.75 53.75H36.25C33.5 53.75 31.25 51.5 31.25 48.75C31.25 46 33.5 43.75 36.25 43.75H48.75Z" fill="#2EB67D"/>
  <path d="M65 48.75C65 46 67.25 43.75 70 43.75C72.75 43.75 75 46 75 48.75C75 51.5 72.75 53.75 70 53.75H65V48.75Z" fill="#ECB22E"/>
  <path d="M62.5 48.75C62.5 51.5 60.25 53.75 57.5 53.75C54.75 53.75 52.5 51.5 52.5 48.75V36.25C52.5 33.5 54.75 31.25 57.5 31.25C60.25 31.25 62.5 33.5 62.5 36.25V48.75Z" fill="#ECB22E"/>
  <path d="M57.5 65C60.25 65 62.5 67.25 62.5 70C62.5 72.75 60.25 75 57.5 75C54.75 75 52.5 72.75 52.5 70V65H57.5Z" fill="#E01E5A"/>
  <path d="M57.5 62.5C54.75 62.5 52.5 60.25 52.5 57.5C52.5 54.75 54.75 52.5 57.5 52.5H70C72.75 52.5 75 54.75 75 57.5C75 60.25 72.75 62.5 70 62.5H57.5Z" fill="#E01E5A"/>
</svg>
