
<svg width="100" height="100" viewBox="0 0 100 100" fill="none" xmlns="http://www.w3.org/2000/svg">
  <path d="M81.25 25H18.75C15.3 25 12.5 27.8 12.5 31.25V68.75C12.5 72.2 15.3 75 18.75 75H81.25C84.7 75 87.5 72.2 87.5 68.75V31.25C87.5 27.8 84.7 25 81.25 25Z" fill="white"/>
  <path d="M62.5 36.25H45.83C44.39 36.25 43.23 37.42 43.23 38.85V58.44C43.23 59.88 44.39 61.04 45.83 61.04H62.5C63.94 61.04 65.1 59.88 65.1 58.44V38.85C65.1 37.42 63.94 36.25 62.5 36.25Z" fill="#5059C9"/>
  <path d="M39.58 41.67V56.25C39.58 56.81 39.14 57.29 38.54 57.29H26.04C25.48 57.29 25 56.81 25 56.25V41.67C25 41.1 25.48 40.63 26.04 40.63H38.54C39.14 40.63 39.58 41.1 39.58 41.67Z" fill="#5059C9"/>
  <path d="M54.17 33.33C54.17 35.83 52.08 37.92 49.58 37.92C47.08 37.92 45 35.83 45 33.33C45 30.83 47.08 28.75 49.58 28.75C52.08 28.75 54.17 30.83 54.17 33.33Z" fill="#5059C9"/>
  <path d="M36.46 36.46C36.46 38.13 35.13 39.46 33.46 39.46C31.79 39.46 30.46 38.13 30.46 36.46C30.46 34.79 31.79 33.46 33.46 33.46C35.13 33.46 36.46 34.79 36.46 36.46Z" fill="#5059C9"/>
  <path d="M75.52 37.71C75.52 36.46 74.48 35.42 73.23 35.42H66.46C65.21 35.42 64.17 36.46 64.17 37.71V57.29C64.17 58.54 65.21 59.58 66.46 59.58H73.23C74.48 59.58 75.52 58.54 75.52 57.29V45.83H71.88V43.75H75.52V41.67H71.88V39.58H75.52V37.71Z" fill="#7B83EB"/>
</svg>
