
<svg width="100" height="100" viewBox="0 0 100 100" fill="none" xmlns="http://www.w3.org/2000/svg">
  <path d="M81.25 25H18.75C15.3 25 12.5 27.8 12.5 31.25V68.75C12.5 72.2 15.3 75 18.75 75H81.25C84.7 75 87.5 72.2 87.5 68.75V31.25C87.5 27.8 84.7 25 81.25 25Z" fill="white"/>
  <path d="M50 70.83C61.506 70.83 70.83 61.506 70.83 50C70.83 38.494 61.506 29.17 50 29.17C38.494 29.17 29.17 38.494 29.17 50C29.17 61.506 38.494 70.83 50 70.83Z" fill="#4A8CFF"/>
  <path d="M41.67 43.33H60.42C60.83 43.33 61.25 43.75 61.25 44.17V55.83C61.25 56.25 60.83 56.67 60.42 56.67H41.67C41.25 56.67 40.83 56.25 40.83 55.83V44.17C40.83 43.75 41.25 43.33 41.67 43.33ZM57.5 47.92L50 53.33L42.5 47.92V45.83L50 51.25L57.5 45.83V47.92Z" fill="white"/>
</svg>
