
<svg width="100" height="100" viewBox="0 0 100 100" fill="none" xmlns="http://www.w3.org/2000/svg">
  <path d="M81.25 25H18.75C15.3 25 12.5 27.8 12.5 31.25V68.75C12.5 72.2 15.3 75 18.75 75H81.25C84.7 75 87.5 72.2 87.5 68.75V31.25C87.5 27.8 84.7 25 81.25 25Z" fill="white"/>
  <path d="M33.33 58.33H66.67V41.67H33.33V58.33ZM41.67 45.83H50V54.17H41.67V45.83ZM54.17 54.17V45.83H62.5V54.17H54.17Z" fill="#5F6368"/>
  <path d="M66.67 31.25H33.33C30.5 31.25 28.33 33.42 28.33 36.25V63.75C28.33 66.58 30.5 68.75 33.33 68.75H66.67C69.5 68.75 71.67 66.58 71.67 63.75V36.25C71.67 33.42 69.5 31.25 66.67 31.25ZM66.67 58.33H33.33V41.67H66.67V58.33Z" fill="#5F6368"/>
  <path d="M33.33 41.67H66.67V58.33H33.33V41.67Z" fill="#FBBC04"/>
  <path d="M50 54.17H41.67V45.83H50V54.17Z" fill="#1E8E3E"/>
  <path d="M62.5 54.17H54.17V45.83H62.5V54.17Z" fill="#1E8E3E"/>
</svg>
