
<svg width="100" height="100" viewBox="0 0 100 100" fill="none" xmlns="http://www.w3.org/2000/svg">
  <path d="M81.25 25H18.75C15.3 25 12.5 27.8 12.5 31.25V68.75C12.5 72.2 15.3 75 18.75 75H81.25C84.7 75 87.5 72.2 87.5 68.75V31.25C87.5 27.8 84.7 25 81.25 25Z" fill="white"/>
  <path d="M75 32.5H25C23.62 32.5 22.5 33.62 22.5 35V65C22.5 66.38 23.62 67.5 25 67.5H75C76.38 67.5 77.5 66.38 77.5 65V35C77.5 33.62 76.38 32.5 75 32.5Z" fill="#0079BF"/>
  <path d="M45 40H32.5C31.12 40 30 41.12 30 42.5V60C30 61.38 31.12 62.5 32.5 62.5H45C46.38 62.5 47.5 61.38 47.5 60V42.5C47.5 41.12 46.38 40 45 40Z" fill="white"/>
  <path d="M67.5 40H55C53.62 40 52.5 41.12 52.5 42.5V52.5C52.5 53.88 53.62 55 55 55H67.5C68.88 55 70 53.88 70 52.5V42.5C70 41.12 68.88 40 67.5 40Z" fill="white"/>
</svg>
