<svg xmlns="http://www.w3.org/2000/svg" fill="none" viewBox="0 0 157 40"><path fill="#2CA01C" d="M18 36c9.9411 0 18-8.0589 18-18 0-9.94114-8.0589-18-18-18C8.05886 0 0 8.05886 0 18c0 9.9411 8.05886 18 18 18Z"/><path fill="#fff" d="M12.0002 11c-3.86797 0-6.99996 3.136-6.99996 7 0 3.868 3.13199 7 6.99996 7h1.0001v-2.6h-1.0001c-2.42798 0-4.39995-1.972-4.39995-4.4 0-2.428 1.97197-4.4 4.39995-4.4h2.4041v13.6c0 1.4359 1.1639 2.6 2.5999 2.6V11h-5.004ZM24.0038 25c3.868 0 6.9999-3.1361 6.9999-7 0-3.868-3.1319-7-6.9999-7h-1.0001v2.5999h1.0001c2.428 0 4.3999 1.9721 4.3999 4.4001s-1.9719 4.3999-4.3999 4.3999h-2.4041V8.79997c0-1.43602-1.1639-2.60002-2.5999-2.60002V25h5.004Z"/><path fill="#000" d="M52.9277 40h-2.7681v-7.0191h-.0478c-.7158 1.1068-2.1238 1.7996-3.6669 1.7996-3.3688 0-5.4449-2.6794-5.4449-5.9123 0-3.2805 2.2153-5.8206 5.3732-5.8206 2.0284 0 3.2773.9914 3.8302 1.8712h.0675v-1.5487h2.6528V40h.004Zm-5.926-7.5287c2.0283 0 3.2533-1.8234 3.2533-3.5552 0-1.7319-1.221-3.6031-3.2533-3.6031-2.1438 0-3.1819 1.8234-3.1819 3.5552-.0039 1.7319 1.0341 3.6031 3.1819 3.6031ZM65.3604 34.458h-2.6289v-1.7797h-.0478c-.4852 1.1068-1.7976 2.1022-3.4363 2.1022-2.8834 0-4.0846-2.2176-4.0846-4.479V23.374h2.7682v6.1432c0 1.3178.2983 2.9541 2.0761 2.9541 1.7539 0 2.5852-1.5248 2.5852-3.0019V23.374h2.7681v11.084ZM68.1365 23.1313h2.7682v11.084h-2.7682v-11.084ZM81.2617 26.4438c-.4375-.625-1.3841-1.0868-2.2832-1.0868-2.0283 0-3.0465 1.8234-3.0465 3.5552 0 1.7319 1.0383 3.5554 3.1382 3.5554.8549 0 1.7975-.3464 2.3307-.9914l1.7299 1.7558c-.9232.9913-2.4464 1.5487-4.0847 1.5487-3.2773 0-5.998-2.1698-5.998-5.8644 0-3.6031 2.6772-5.8645 5.9304-5.8645 1.6149 0 3.2974.645 4.1757 1.7318l-1.8925 1.6602ZM84.5149 17h2.7682v11.0362h.0675l4.1998-4.6661h3.5516l-4.7965 5.0124 5.0989 6.0715h-3.6666l-4.3831-5.6813h-.0676v5.6813h-2.7682V17h-.004ZM99.4377 17v7.7834h.0676c.5767-.7166 1.6827-1.7319 3.7147-1.7319 3.162 0 5.373 2.5401 5.373 5.8207 0 3.2329-2.076 5.9123-5.444 5.9123-1.548 0-3.048-.7167-3.8069-1.9867h-.0475v1.6642h-2.6291V17h2.7722Zm3.1613 8.313c-2.028 0-3.2529 1.8712-3.2529 3.603 0 1.7319 1.2209 3.5553 3.2529 3.5553 2.144 0 3.182-1.8712 3.182-3.6031 0-1.7318-1.038-3.5552-3.182-3.5552ZM115.816 23.0518c3.344 0 6.022 2.333 6.022 5.8207 0 3.4876-2.678 5.9122-6.022 5.9122-3.345 0-6.022-2.4246-6.022-5.9122 0-3.4877 2.677-5.8207 6.022-5.8207Zm0 9.4197c2.191 0 3.205-1.8712 3.205-3.603 0-1.7319-1.014-3.5553-3.205-3.5553-2.192 0-3.206 1.8234-3.206 3.5553 0 1.7318 1.014 3.603 3.206 3.603ZM129.059 23.0518c3.345 0 6.022 2.333 6.022 5.8207 0 3.4876-2.677 5.9122-6.022 5.9122-3.344 0-6.021-2.4246-6.021-5.9122 0-3.4877 2.677-5.8207 6.021-5.8207Zm0 9.4197c2.192 0 3.206-1.8712 3.206-3.603 0-1.7319-1.014-3.5553-3.206-3.5553-2.191 0-3.205 1.8234-3.205 3.5553-.004 1.7318 1.014 3.603 3.205 3.603ZM136.763 17h2.769v11.0362h.067l4.201-4.6661h3.551l-4.796 5.0124 5.099 6.0715h-3.668l-4.383-5.6813h-.067v5.6813h-2.769V17h-.004ZM155.206 26.3282c-.485-.645-1.408-1.2024-2.422-1.2024-.875 0-1.778.3225-1.778 1.2024 0 .856.856 1.0869 2.398 1.4532 1.639.3941 3.576 1.1306 3.576 3.3005 0 2.7033-2.192 3.6946-4.613 3.6946-1.707 0-3.484-.645-4.547-1.8234l1.822-1.708c.601.7843 1.639 1.3855 2.836 1.3855.807 0 1.778-.3225 1.778-1.3178 0-.9237-.856-1.2023-2.538-1.5925-1.639-.3942-3.277-1.0631-3.277-3.1413 0-2.4723 2.215-3.5314 4.407-3.5314 1.59 0 3.253.5534 4.152 1.6841l-1.794 1.5965ZM71.0157 8.27187C71.0157 11.0035 73.2131 13 76.0059 13 78.7986 13 81 11.0074 81 8.27187V2h-2.7071v5.95077c0 1.47411-.9917 2.46073-2.2949 2.46073-1.307 0-2.2949-.98662-2.2949-2.46073V2H71l.0157 6.27187ZM89 4.56942h3.1736V13h2.6573V4.56942H98V2h-9v2.56942ZM87 2h-3v11h3V2ZM60 4.56942h3.1733V13h2.6571V4.56942H69V2h-9v2.56942ZM46 2h-3v11h3V2ZM57.9922 6.7281C57.9922 3.99648 55.7899 2 52.9961 2S48 3.99261 48 6.7281V13h2.7043V7.04925c0-1.47416.9922-2.46079 2.2957-2.46079s2.2957.98663 2.2957 2.46079V13H58l-.0078-6.2719Z"/></svg>
